<svg width="178" height="116" viewBox="0 0 178 116" fill="none" xmlns="http://www.w3.org/2000/svg">
<g filter="url(#filter0_d_312_6)">
<path d="M167.48 84.2495C165.729 64.3087 138.58 63.6432 132.6 62.0746L121.923 60.3005C124.919 63.3067 131.705 71.7584 134.882 81.5159C138.059 91.2734 144.183 96.7918 151.557 99.2348C158.828 101.644 168.314 93.7451 167.48 84.2495Z" fill="#9FA7C4"/>
<path d="M163.51 12.0791C145.645 3.04928 130.76 25.764 126.274 30.0173L119.135 38.1531C123.269 37.1934 134.029 35.8858 143.994 38.3328C153.96 40.7799 161.878 38.4878 167.843 33.5116C173.725 28.6044 172.017 16.379 163.51 12.0791Z" fill="#9FA7C4"/>
<path d="M130.52 7.30999C127.747 8.52333 124.93 9.43333 122.07 10.04C119.297 10.56 116.48 11.1667 113.62 11.86C112.667 12.12 111.843 12.4233 111.15 12.77C110.543 13.1167 109.98 13.7667 109.46 14.72C106.167 20.7867 103.047 27.2433 100.1 34.09C97.1533 40.9367 94.4233 47.87 91.9099 54.89C89.3966 61.8233 87.0999 68.7133 85.0199 75.56C83.0266 82.32 81.3366 88.69 79.9499 94.67C81.7699 94.67 83.2433 94.7567 84.3699 94.93C85.4966 95.1033 86.4499 95.4933 87.2299 96.1C88.0966 96.62 88.7899 97.4433 89.3099 98.57C89.9166 99.6967 90.5233 101.213 91.1299 103.12C86.3633 102.947 81.7266 103.12 77.2199 103.64C72.7999 104.247 68.2499 104.853 63.5699 105.46C61.8366 105.72 60.4066 105.807 59.2799 105.72C58.1533 105.633 57.1999 105.373 56.4199 104.94C55.5533 104.507 54.7733 103.813 54.0799 102.86C53.2999 101.993 52.4766 100.823 51.6099 99.35C52.7366 98.57 53.9499 98.0067 55.2499 97.66C56.4633 97.2267 57.7199 96.9233 59.0199 96.75C60.3199 96.49 61.6199 96.2733 62.9199 96.1C64.2199 95.84 65.5199 95.4933 66.8199 95.06C70.1133 80.9333 74.2299 67.1533 79.1699 53.72C84.1099 40.2867 90.0033 27.2 96.8499 14.46C95.2033 14.46 93.5999 14.46 92.0399 14.46C90.5666 14.46 89.1366 14.2867 87.7499 13.94C86.3633 13.5067 85.1066 12.8567 83.9799 11.99C82.9399 11.0367 82.0733 9.69333 81.3799 7.96C82.9399 7.18 85.5833 6.44333 89.3099 5.75C93.1233 5.05666 97.1533 4.40666 101.4 3.8C105.647 3.19333 109.763 2.67333 113.75 2.24C117.823 1.80666 120.9 1.46 122.98 1.19999C124.367 1.02666 125.45 1.02666 126.23 1.19999C127.097 1.28666 127.79 1.58999 128.31 2.11C128.83 2.54333 129.22 3.19333 129.48 4.06C129.827 4.92666 130.173 6.00999 130.52 7.30999Z" fill="#9FA7C4"/>
<path d="M6.18199 84.2495C7.81077 64.3087 33.0652 63.6432 38.6279 62.0746L48.5601 60.3005C45.7733 63.3067 39.4609 71.7584 36.5054 81.5159C33.5499 91.2734 27.8536 96.7918 20.9945 99.2348C14.2303 101.644 5.40638 93.7451 6.18199 84.2495Z" fill="#9FA7C4"/>
<path d="M9.87508 12.0791C26.4934 3.04928 40.3394 25.764 44.513 30.0173L51.1537 38.1531C47.3081 37.1934 37.2992 35.8858 28.029 38.3328C18.7588 40.7799 11.3932 38.4878 5.84473 33.5116C0.373124 28.6044 1.9616 16.379 9.87508 12.0791Z" fill="#9FA7C4"/>
</g>
<defs>
<filter id="filter0_d_312_6" x="2.62021" y="0.940002" width="174.689" height="114.91" filterUnits="userSpaceOnUse" color-interpolation-filters="sRGB">
<feFlood flood-opacity="0" result="BackgroundImageFix"/>
<feColorMatrix in="SourceAlpha" type="matrix" values="0 0 0 0 0 0 0 0 0 0 0 0 0 0 0 0 0 0 127 0" result="hardAlpha"/>
<feOffset dx="4" dy="8"/>
<feGaussianBlur stdDeviation="1"/>
<feComposite in2="hardAlpha" operator="out"/>
<feColorMatrix type="matrix" values="0 0 0 0 0 0 0 0 0 0 0 0 0 0 0 0 0 0 0.25 0"/>
<feBlend mode="normal" in2="BackgroundImageFix" result="effect1_dropShadow_312_6"/>
<feBlend mode="normal" in="SourceGraphic" in2="effect1_dropShadow_312_6" result="shape"/>
</filter>
</defs>
</svg>
