<svg width="540" height="167" viewBox="0 0 540 167" fill="none" xmlns="http://www.w3.org/2000/svg">
<g filter="url(#filter0_d_25_2)">
<path d="M529.48 121.249C527.729 101.309 500.58 100.643 494.6 99.0746L483.923 97.3005C486.919 100.307 493.705 108.758 496.882 118.516C500.059 128.273 506.183 133.792 513.557 136.235C520.828 138.644 530.314 130.745 529.48 121.249Z" fill="#9FA7C4"/>
<path d="M525.51 49.0791C507.645 40.0493 492.76 62.764 488.274 67.0173L481.135 75.1531C485.269 74.1934 496.029 72.8858 505.994 75.3328C515.96 77.7799 523.878 75.4878 529.843 70.5116C535.725 65.6044 534.017 53.379 525.51 49.0791Z" fill="#9FA7C4"/>
<path d="M143.52 33.31C140.747 34.5233 137.93 35.4333 135.07 36.04C132.297 36.56 129.48 37.1667 126.62 37.86C125.667 38.12 124.843 38.4233 124.15 38.77C123.543 39.1167 122.98 39.7667 122.46 40.72C119.167 46.7867 116.047 53.2433 113.1 60.09C110.153 66.9367 107.423 73.87 104.91 80.89C102.397 87.8233 100.1 94.7133 98.02 101.56C96.0267 108.32 94.3367 114.69 92.95 120.67C94.77 120.67 96.2433 120.757 97.37 120.93C98.4967 121.103 99.45 121.493 100.23 122.1C101.097 122.62 101.79 123.443 102.31 124.57C102.917 125.697 103.523 127.213 104.13 129.12C99.3633 128.947 94.7267 129.12 90.22 129.64C85.8 130.247 81.25 130.853 76.57 131.46C74.8367 131.72 73.4067 131.807 72.28 131.72C71.1533 131.633 70.2 131.373 69.42 130.94C68.5533 130.507 67.7733 129.813 67.08 128.86C66.3 127.993 65.4767 126.823 64.61 125.35C65.7367 124.57 66.95 124.007 68.25 123.66C69.4633 123.227 70.72 122.923 72.02 122.75C73.32 122.49 74.62 122.273 75.92 122.1C77.22 121.84 78.52 121.493 79.82 121.06C83.1133 106.933 87.23 93.1533 92.17 79.72C97.11 66.2867 103.003 53.2 109.85 40.46C108.203 40.46 106.6 40.46 105.04 40.46C103.567 40.46 102.137 40.2867 100.75 39.94C99.3633 39.5067 98.1067 38.8567 96.98 37.99C95.94 37.0367 95.0733 35.6933 94.38 33.96C95.94 33.18 98.5833 32.4433 102.31 31.75C106.123 31.0567 110.153 30.4067 114.4 29.8C118.647 29.1933 122.763 28.6733 126.75 28.24C130.823 27.8067 133.9 27.46 135.98 27.2C137.367 27.0267 138.45 27.0267 139.23 27.2C140.097 27.2867 140.79 27.59 141.31 28.11C141.83 28.5433 142.22 29.1933 142.48 30.06C142.827 30.9267 143.173 32.01 143.52 33.31ZM138.249 77.64C137.122 79.8067 136.039 82.1467 134.999 84.66C133.959 87.0867 133.006 89.6 132.139 92.2C131.272 94.7133 130.492 97.27 129.799 99.87C129.106 102.383 128.542 104.723 128.109 106.89C132.096 99.6967 136.299 92.8067 140.719 86.22C145.226 79.6333 150.339 73.5233 156.059 67.89C157.446 66.5033 158.572 65.81 159.439 65.81C160.306 65.81 161.606 66.33 163.339 67.37C164.639 68.15 165.419 68.9733 165.679 69.84C166.026 70.62 166.026 71.92 165.679 73.74C165.332 74.78 164.942 75.8633 164.509 76.99C164.162 78.1167 163.772 79.2 163.339 80.24C161.952 84.0533 160.566 87.65 159.179 91.03C157.879 94.41 156.709 97.7467 155.669 101.04C154.629 104.247 153.762 107.453 153.069 110.66C152.462 113.78 152.159 116.987 152.159 120.28C150.859 120.453 149.516 120.497 148.129 120.41C146.829 120.323 145.616 120.063 144.489 119.63C143.449 119.11 142.539 118.417 141.759 117.55C141.066 116.597 140.676 115.383 140.589 113.91C140.416 112.003 140.546 109.923 140.979 107.67C141.499 105.33 142.106 102.99 142.799 100.65C143.492 98.2233 144.186 95.8833 144.879 93.63C145.572 91.3767 146.092 89.34 146.439 87.52C144.619 90.0333 142.842 92.6333 141.109 95.32C139.462 97.92 137.946 100.477 136.559 102.99C135.172 105.417 133.916 107.713 132.789 109.88C131.749 111.96 130.882 113.737 130.189 115.21C129.842 115.903 129.496 116.597 129.149 117.29C128.889 117.983 128.542 118.59 128.109 119.11C127.762 119.63 127.286 119.977 126.679 120.15C126.072 120.323 125.292 120.237 124.339 119.89C122.606 119.283 121.132 118.807 119.919 118.46C118.706 118.027 117.752 117.463 117.059 116.77C116.366 115.99 115.932 114.907 115.759 113.52C115.586 112.133 115.716 110.14 116.149 107.54C117.969 96.1 121.912 85.57 127.979 75.95C129.626 73.35 131.142 71.92 132.529 71.66C134.002 71.3133 135.996 72.05 138.509 73.87C139.376 74.4767 139.636 75.1267 139.289 75.82C138.942 76.4267 138.596 77.0333 138.249 77.64ZM198.479 28.63C198.565 28.4567 198.869 28.1967 199.389 27.85C199.909 27.5033 200.645 27.4167 201.599 27.59C202.552 27.7633 203.592 28.0667 204.719 28.5C205.845 28.9333 206.842 29.4967 207.709 30.19C208.575 30.7967 209.225 31.4467 209.659 32.14C210.092 32.8333 210.092 33.5267 209.659 34.22C207.405 37.86 205.195 41.37 203.029 44.75C200.949 48.0433 199.042 51.4233 197.309 54.89C198.869 55.0633 200.255 55.1933 201.469 55.28C202.682 55.28 203.895 55.3667 205.109 55.54C207.882 55.8867 209.355 57.1867 209.529 59.44C209.789 61.3467 209.529 62.6467 208.749 63.34C208.055 63.9467 206.712 64.2067 204.719 64.12L193.279 63.86C192.845 64.7267 192.239 65.81 191.459 67.11C190.765 68.41 190.332 69.2767 190.159 69.71C187.905 74.8233 185.479 80.1967 182.879 85.83C180.279 91.4633 178.502 96.9667 177.549 102.34C176.682 107.02 176.509 110.4 177.029 112.48C177.635 114.56 178.632 115.773 180.019 116.12C181.492 116.38 183.269 115.947 185.349 114.82C187.429 113.607 189.595 112.09 191.849 110.27C194.102 108.45 196.269 106.5 198.349 104.42C200.515 102.253 202.422 100.303 204.069 98.57C204.762 98.4833 205.369 98.6133 205.889 98.96C206.495 99.22 206.885 99.6533 207.059 100.26C207.319 100.867 207.319 101.647 207.059 102.6C206.799 103.467 206.149 104.463 205.109 105.59C202.855 108.103 200.212 110.617 197.179 113.13C194.145 115.643 191.112 117.81 188.079 119.63C184.005 121.883 180.322 122.837 177.029 122.49C173.735 122.143 171.092 121.103 169.099 119.37C166.672 117.29 165.199 114.387 164.679 110.66C164.072 106.933 164.245 102.773 165.199 98.18C165.892 95.06 166.759 91.94 167.799 88.82C168.925 85.7 170.095 82.71 171.309 79.85C172.522 76.9033 173.735 74.13 174.949 71.53C176.249 68.8433 177.419 66.46 178.459 64.38C177.505 64.38 176.552 64.38 175.599 64.38C174.732 64.2933 173.865 64.2933 172.999 64.38L163.509 64.9C163.162 64.9 162.772 64.8567 162.339 64.77C161.905 64.5967 161.602 64.4233 161.429 64.25C160.909 63.5567 160.649 62.7333 160.649 61.78C160.562 60.8267 160.735 59.9167 161.169 59.05C161.515 58.0967 162.035 57.2733 162.729 56.58C163.422 55.8867 164.202 55.4533 165.069 55.28C167.582 55.1067 170.095 54.9767 172.609 54.89C175.209 54.8033 177.765 54.7167 180.279 54.63C182.359 53.59 184.222 52.0733 185.869 50.08C187.515 48 189.032 45.79 190.419 43.45C191.805 41.0233 193.105 38.51 194.319 35.91C195.619 33.31 197.005 30.8833 198.479 28.63ZM211.62 100.65C210.406 104.203 210.233 107.713 211.1 111.18C211.706 113.52 213.266 114.603 215.78 114.43C218.293 114.257 221.153 113.477 224.36 112.09C227.566 110.617 230.73 108.84 233.85 106.76C236.97 104.593 239.44 102.687 241.26 101.04C241.866 100.52 242.343 100.087 242.69 99.74C243.123 99.3067 243.426 99.0033 243.6 98.83C244.64 99.6967 245.376 100.433 245.81 101.04C246.33 101.647 246.59 102.253 246.59 102.86C246.59 103.38 246.416 103.9 246.07 104.42C245.723 104.94 245.29 105.503 244.77 106.11C242.69 108.623 240.436 110.79 238.01 112.61C235.67 114.343 233.07 116.077 230.21 117.81C229.256 118.417 228.26 118.98 227.22 119.5C226.18 119.933 225.096 120.323 223.97 120.67C222.323 121.19 220.72 121.407 219.16 121.32C217.6 121.147 216.083 120.8 214.61 120.28C213.223 119.76 211.88 119.11 210.58 118.33C209.28 117.463 207.98 116.597 206.68 115.73C204.166 113.737 202.52 111.44 201.74 108.84C200.873 106.24 200.656 103.553 201.09 100.78C201.436 98.0067 202.216 95.06 203.43 91.94C204.643 88.82 206.16 85.9167 207.98 83.23C209.8 80.5433 211.923 78.2467 214.35 76.34C216.863 74.4333 219.55 73.2633 222.41 72.83C222.756 72.83 222.973 72.7867 223.06 72.7C224.966 72.18 226.916 72.31 228.91 73.09C230.99 73.87 232.766 74.9967 234.24 76.47C235.8 77.8567 236.926 79.5467 237.62 81.54C238.313 83.4467 238.356 85.31 237.75 87.13C236.97 89.0367 235.54 91.03 233.46 93.11C231.466 95.1033 229.17 96.88 226.57 98.44C224.056 99.9133 221.456 100.91 218.77 101.43C216.083 101.95 213.7 101.69 211.62 100.65ZM212.66 96.88C214.306 96.9667 215.91 96.7933 217.47 96.36C219.03 95.84 220.503 95.1467 221.89 94.28C223.276 93.3267 224.576 92.2867 225.79 91.16C227.003 90.0333 228.043 88.8633 228.91 87.65C229.17 87.2167 229.43 86.6967 229.69 86.09C229.95 85.3967 230.08 84.7467 230.08 84.14C230.166 83.4467 230.08 82.84 229.82 82.32C229.646 81.8 229.256 81.41 228.65 81.15C227.696 80.8033 226.57 80.89 225.27 81.41C223.97 81.93 223.016 82.45 222.41 82.97C219.983 84.7033 217.99 86.7833 216.43 89.21C214.956 91.55 213.7 94.1067 212.66 96.88ZM286.326 79.59C281.646 79.6767 277.269 81.02 273.196 83.62C269.209 86.1333 265.569 89.2967 262.276 93.11C258.983 96.8367 256.079 100.867 253.566 105.2C251.139 109.533 249.146 113.52 247.586 117.16C246.979 118.547 246.503 119.63 246.156 120.41C245.896 121.103 245.506 121.537 244.986 121.71C244.553 121.797 243.946 121.667 243.166 121.32C242.386 120.887 241.216 120.28 239.656 119.5C238.009 118.72 237.186 118.07 237.186 117.55C237.099 117.03 237.143 116.25 237.316 115.21C239.136 108.71 241.043 102.383 243.036 96.23C245.029 90.0767 247.283 83.9667 249.796 77.9C250.576 75.9067 251.269 74.78 251.876 74.52C252.569 74.26 253.956 74.4333 256.036 75.04C256.296 75.1267 256.773 75.2567 257.466 75.43C258.506 75.7767 259.243 76.1667 259.676 76.6C260.109 76.9467 260.369 77.38 260.456 77.9C260.629 78.3333 260.673 78.8967 260.586 79.59C260.499 80.1967 260.456 80.89 260.456 81.67C260.456 81.7567 260.456 81.8 260.456 81.8C263.749 79.5467 266.869 77.38 269.816 75.3C272.849 73.22 275.926 71.7467 279.046 70.88C284.506 69.32 287.713 70.9233 288.666 75.69C289.013 76.9033 289.013 77.8567 288.666 78.55C288.319 79.2433 287.539 79.59 286.326 79.59ZM302.68 77.64C304.326 78.42 305.236 79.1133 305.41 79.72C305.67 80.24 305.583 81.3233 305.15 82.97C304.63 84.4433 303.85 86.61 302.81 89.47C301.77 92.2433 300.773 95.19 299.82 98.31C298.953 101.343 298.303 104.29 297.87 107.15C297.523 109.923 297.74 112.003 298.52 113.39C299.646 115.037 301.033 115.6 302.68 115.08C304.066 114.56 305.54 113.433 307.1 111.7C308.746 109.967 310.263 108.147 311.65 106.24C313.123 104.333 314.38 102.643 315.42 101.17C316.46 99.61 317.11 98.7867 317.37 98.7C318.236 98.96 318.843 99.3067 319.19 99.74C319.623 100.087 319.883 100.52 319.97 101.04C320.143 101.473 320.143 101.95 319.97 102.47C319.883 102.903 319.753 103.293 319.58 103.64C318.366 105.633 316.85 107.93 315.03 110.53C313.21 113.043 311.173 115.297 308.92 117.29C306.666 119.283 304.24 120.757 301.64 121.71C299.126 122.577 296.613 122.36 294.1 121.06C291.586 120.193 289.68 118.807 288.38 116.9C287.08 114.993 286.256 112.74 285.91 110.14C285.563 107.02 285.606 104.03 286.04 101.17C286.386 98.31 286.95 95.5367 287.73 92.85C288.596 90.0767 289.636 87.39 290.85 84.79C292.063 82.1033 293.32 79.46 294.62 76.86C295.053 75.9933 295.573 75.5167 296.18 75.43C296.873 75.2567 297.566 75.3 298.26 75.56C299.04 75.7333 299.776 76.08 300.47 76.6C301.25 77.0333 301.986 77.38 302.68 77.64ZM305.02 58.14C307.273 58.14 308.963 58.8767 310.09 60.35C311.216 61.7367 311.823 63.2967 311.91 65.03C311.996 66.6767 311.52 68.1933 310.48 69.58C309.526 70.9667 308.096 71.6167 306.19 71.53C303.59 71.4433 301.64 70.7067 300.34 69.32C299.126 67.8467 298.52 66.2867 298.52 64.64C298.52 62.9067 299.083 61.39 300.21 60.09C301.336 58.7033 302.94 58.0533 305.02 58.14ZM350.986 80.76C351.766 79.8933 352.502 79.07 353.196 78.29C353.976 77.51 354.712 76.73 355.406 75.95C356.446 74.9967 357.312 74.6067 358.006 74.78C358.786 74.8667 359.956 75.5167 361.516 76.73C362.469 77.4233 362.989 78.03 363.076 78.55C363.162 79.07 362.859 79.9367 362.166 81.15C359.999 84.7033 358.092 88.04 356.446 91.16C354.886 94.28 353.586 97.53 352.546 100.91C352.026 102.557 351.506 104.333 350.986 106.24C350.552 108.06 350.422 109.577 350.596 110.79C350.769 111.917 351.419 112.523 352.546 112.61C353.759 112.61 355.752 111.613 358.526 109.62C359.912 108.667 361.689 107.323 363.856 105.59C366.022 103.77 368.796 101.473 372.176 98.7C373.736 99.3933 374.732 100.39 375.166 101.69C375.599 102.99 375.079 104.463 373.606 106.11C371.526 108.45 369.706 110.4 368.146 111.96C366.586 113.433 364.592 115.167 362.166 117.16C360.172 118.807 358.092 119.803 355.926 120.15C353.759 120.41 351.679 120.15 349.686 119.37C347.779 118.59 346.046 117.333 344.486 115.6C342.926 113.78 341.712 111.57 340.846 108.97C340.586 109.23 340.282 109.533 339.936 109.88C339.589 110.14 339.199 110.443 338.766 110.79C337.552 111.83 336.339 112.913 335.126 114.04C333.912 115.08 332.612 116.12 331.226 117.16C328.886 118.807 326.329 118.937 323.556 117.55C323.382 117.377 323.209 117.29 323.036 117.29C322.862 117.203 322.689 117.073 322.516 116.9C320.522 115.86 318.919 114.82 317.706 113.78C316.492 112.74 315.582 111.613 314.976 110.4C314.369 109.187 314.066 107.8 314.066 106.24C314.066 104.593 314.282 102.73 314.716 100.65C315.062 99.4367 315.409 98.2667 315.756 97.14C316.102 95.9267 316.492 94.7567 316.926 93.63C319.006 88.3433 322.039 83.6633 326.026 79.59C326.719 78.8967 327.369 78.29 327.976 77.77C328.669 77.25 329.362 76.73 330.056 76.21C334.649 73.09 339.156 72.96 343.576 75.82C344.789 76.6 346.002 77.4233 347.216 78.29C348.516 79.07 349.772 79.8933 350.986 80.76ZM331.226 104.55C335.299 100.737 339.026 96.4033 342.406 91.55C342.926 90.77 343.402 89.6867 343.836 88.3C344.269 86.8267 344.442 85.4833 344.356 84.27C344.356 83.0567 344.009 82.19 343.316 81.67C342.622 81.0633 341.452 81.1933 339.806 82.06C337.986 82.9267 336.339 84.14 334.866 85.7C332.439 88.2133 330.402 90.9 328.756 93.76C327.109 96.62 325.939 99.4367 325.246 102.21C324.812 104.29 324.639 105.807 324.726 106.76C324.899 107.627 325.246 108.103 325.766 108.19C326.372 108.277 327.109 107.973 327.976 107.28C328.929 106.587 330.012 105.677 331.226 104.55ZM391.393 77.64C390.267 79.8067 389.183 82.1467 388.143 84.66C387.103 87.0867 386.15 89.6 385.283 92.2C384.417 94.7133 383.637 97.27 382.943 99.87C382.25 102.383 381.687 104.723 381.253 106.89C385.24 99.6967 389.443 92.8067 393.863 86.22C398.37 79.6333 403.483 73.5233 409.203 67.89C410.59 66.5033 411.717 65.81 412.583 65.81C413.45 65.81 414.75 66.33 416.483 67.37C417.783 68.15 418.563 68.9733 418.823 69.84C419.17 70.62 419.17 71.92 418.823 73.74C418.477 74.78 418.087 75.8633 417.653 76.99C417.307 78.1167 416.917 79.2 416.483 80.24C415.097 84.0533 413.71 87.65 412.323 91.03C411.023 94.41 409.853 97.7467 408.813 101.04C407.773 104.247 406.907 107.453 406.213 110.66C405.607 113.78 405.303 116.987 405.303 120.28C404.003 120.453 402.66 120.497 401.273 120.41C399.973 120.323 398.76 120.063 397.633 119.63C396.593 119.11 395.683 118.417 394.903 117.55C394.21 116.597 393.82 115.383 393.733 113.91C393.56 112.003 393.69 109.923 394.123 107.67C394.643 105.33 395.25 102.99 395.943 100.65C396.637 98.2233 397.33 95.8833 398.023 93.63C398.717 91.3767 399.237 89.34 399.583 87.52C397.763 90.0333 395.987 92.6333 394.253 95.32C392.607 97.92 391.09 100.477 389.703 102.99C388.317 105.417 387.06 107.713 385.933 109.88C384.893 111.96 384.027 113.737 383.333 115.21C382.987 115.903 382.64 116.597 382.293 117.29C382.033 117.983 381.687 118.59 381.253 119.11C380.907 119.63 380.43 119.977 379.823 120.15C379.217 120.323 378.437 120.237 377.483 119.89C375.75 119.283 374.277 118.807 373.063 118.46C371.85 118.027 370.897 117.463 370.203 116.77C369.51 115.99 369.077 114.907 368.903 113.52C368.73 112.133 368.86 110.14 369.293 107.54C371.113 96.1 375.057 85.57 381.123 75.95C382.77 73.35 384.287 71.92 385.673 71.66C387.147 71.3133 389.14 72.05 391.653 73.87C392.52 74.4767 392.78 75.1267 392.433 75.82C392.087 76.4267 391.74 77.0333 391.393 77.64ZM448.763 104.16C451.796 104.247 454.44 103.857 456.693 102.99C459.033 102.037 461.373 100.65 463.713 98.83C464.926 100.563 465.446 101.993 465.273 103.12C465.1 104.16 464.536 105.07 463.583 105.85C460.723 107.757 458.036 109.1 455.523 109.88C453.096 110.573 450.15 111.05 446.683 111.31C445.47 111.397 444.473 111.657 443.693 112.09C442.913 112.437 442.133 113 441.353 113.78C439.88 114.993 438.406 116.12 436.933 117.16C435.546 118.2 434.116 119.197 432.643 120.15C429.783 122.057 426.793 122.013 423.673 120.02C423.586 119.933 423.456 119.89 423.283 119.89C418.603 117.637 415.96 114.907 415.353 111.7C414.66 108.407 415.18 104.55 416.913 100.13C417.346 99.0033 417.91 97.8767 418.603 96.75C419.296 95.6233 420.076 94.6267 420.943 93.76C422.243 92.3733 423.37 90.9433 424.323 89.47C425.276 87.9967 426.143 86.3933 426.923 84.66C429.09 80.4133 432.34 77.0767 436.673 74.65C438.666 73.5233 440.53 73.0033 442.263 73.09C443.996 73.1767 445.773 73.8267 447.593 75.04C450.366 76.7733 452.186 78.8967 453.053 81.41C453.92 83.8367 454.223 86.3933 453.963 89.08C453.703 91.7667 453.053 94.4533 452.013 97.14C450.973 99.74 449.89 102.08 448.763 104.16ZM436.543 104.68C437.41 103.64 438.536 102.08 439.923 100C441.31 97.92 442.566 95.71 443.693 93.37C444.82 91.03 445.556 88.7767 445.903 86.61C446.336 84.4433 445.99 82.71 444.863 81.41C443.91 80.2833 442.783 79.8933 441.483 80.24C440.27 80.5867 439.013 81.3233 437.713 82.45C436.413 83.5767 435.2 84.8767 434.073 86.35C433.033 87.8233 432.253 89.08 431.733 90.12C432.166 90.8133 432.47 91.4633 432.643 92.07C432.903 92.6767 433.206 93.1967 433.553 93.63C432.86 94.3233 432.253 94.9733 431.733 95.58C431.213 96.1867 430.736 96.75 430.303 97.27C430.65 98.3967 430.996 99.3067 431.343 100C431.69 100.693 432.08 101.3 432.513 101.82C432.946 102.34 433.466 102.817 434.073 103.25C434.68 103.683 435.503 104.16 436.543 104.68ZM426.403 102.99C425.45 105.243 424.93 107.02 424.843 108.32C424.756 109.533 425.016 110.357 425.623 110.79C426.316 111.137 427.27 111.05 428.483 110.53C429.783 110.01 431.256 109.143 432.903 107.93C431.516 107.497 430.303 106.933 429.263 106.24C428.31 105.547 427.356 104.463 426.403 102.99Z" fill="#9FA7C4"/>
<path d="M6.18211 121.249C7.81089 101.309 33.0653 100.643 38.628 99.0746L48.5602 97.3005C45.7734 100.307 39.461 108.758 36.5055 118.516C33.55 128.273 27.8537 133.792 20.9946 136.235C14.2305 138.644 5.4065 130.745 6.18211 121.249Z" fill="#9FA7C4"/>
<path d="M9.87521 49.0791C26.4936 40.0493 40.3395 62.764 44.5131 67.0173L51.1538 75.1531C47.3082 74.1934 37.2994 72.8858 28.0291 75.3328C18.7589 77.7799 11.3933 75.4878 5.84485 70.5116C0.373246 65.6044 1.96172 53.379 9.87521 49.0791Z" fill="#9FA7C4"/>
</g>
<defs>
<filter id="filter0_d_25_2" x="2.62033" y="26.94" width="536.689" height="119.732" filterUnits="userSpaceOnUse" color-interpolation-filters="sRGB">
<feFlood flood-opacity="0" result="BackgroundImageFix"/>
<feColorMatrix in="SourceAlpha" type="matrix" values="0 0 0 0 0 0 0 0 0 0 0 0 0 0 0 0 0 0 127 0" result="hardAlpha"/>
<feOffset dx="4" dy="8"/>
<feGaussianBlur stdDeviation="1"/>
<feComposite in2="hardAlpha" operator="out"/>
<feColorMatrix type="matrix" values="0 0 0 0 0 0 0 0 0 0 0 0 0 0 0 0 0 0 0.25 0"/>
<feBlend mode="normal" in2="BackgroundImageFix" result="effect1_dropShadow_25_2"/>
<feBlend mode="normal" in="SourceGraphic" in2="effect1_dropShadow_25_2" result="shape"/>
</filter>
</defs>
</svg>
