<svg width="15" height="19" viewBox="0 0 15 19" fill="none" xmlns="http://www.w3.org/2000/svg">
<path d="M7.36634 13.9487C7.85475 13.9487 8.32317 13.768 8.66853 13.4466C9.0139 13.1251 9.20792 12.689 9.20792 12.2344C9.20792 11.7797 9.0139 11.3437 8.66853 11.0222C8.32317 10.7007 7.85475 10.5201 7.36634 10.5201C6.87792 10.5201 6.4095 10.7007 6.06414 11.0222C5.71878 11.3437 5.52475 11.7797 5.52475 12.2344C5.52475 12.689 5.71878 13.1251 6.06414 13.4466C6.4095 13.768 6.87792 13.9487 7.36634 13.9487ZM12.8911 6.23438C13.3795 6.23438 13.8479 6.41499 14.1933 6.73648C14.5386 7.05797 14.7327 7.494 14.7327 7.94866V16.5201C14.7327 16.9747 14.5386 17.4108 14.1933 17.7323C13.8479 18.0538 13.3795 18.2344 12.8911 18.2344H1.84158C1.35317 18.2344 0.884751 18.0538 0.539387 17.7323C0.194023 17.4108 0 16.9747 0 16.5201V7.94866C0 7.494 0.194023 7.05797 0.539387 6.73648C0.884751 6.41499 1.35317 6.23438 1.84158 6.23438H2.76238V4.52009C2.76238 3.38345 3.24743 2.29336 4.11085 1.48963C4.97426 0.685904 6.14529 0.234375 7.36634 0.234375C7.97094 0.234375 8.56962 0.345228 9.1282 0.560606C9.68677 0.775983 10.1943 1.09167 10.6218 1.48963C11.0493 1.8876 11.3885 2.36005 11.6198 2.88002C11.8512 3.39998 11.9703 3.95728 11.9703 4.52009V6.23438H12.8911ZM7.36634 1.94866C6.63371 1.94866 5.93109 2.21958 5.41304 2.70181C4.895 3.18405 4.60396 3.8381 4.60396 4.52009V6.23438H10.1287V4.52009C10.1287 3.8381 9.83768 3.18405 9.31963 2.70181C8.80159 2.21958 8.09896 1.94866 7.36634 1.94866Z" fill="#D0D9F6"/>
</svg>
