<svg width="17" height="18" viewBox="0 0 17 18" fill="none" xmlns="http://www.w3.org/2000/svg">
<path d="M8.19116 0C9.27737 0 10.3191 0.474106 11.0872 1.31802C11.8552 2.16193 12.2867 3.30653 12.2867 4.5C12.2867 5.69347 11.8552 6.83807 11.0872 7.68198C10.3191 8.52589 9.27737 9 8.19116 9C7.10494 9 6.06321 8.52589 5.29514 7.68198C4.52707 6.83807 4.09558 5.69347 4.09558 4.5C4.09558 3.30653 4.52707 2.16193 5.29514 1.31802C6.06321 0.474106 7.10494 0 8.19116 0ZM8.19116 11.25C12.7168 11.25 16.3823 13.2638 16.3823 15.75V18H0V15.75C0 13.2638 3.66554 11.25 8.19116 11.25Z" fill="#D0D9F6"/>
</svg>
